<?xml version="1.0" standalone="no"?>
<!DOCTYPE svg PUBLIC "-//W3C//DTD SVG 20010904//EN"
 "http://www.w3.org/TR/2001/REC-SVG-20010904/DTD/svg10.dtd">
<svg version="1.0" xmlns="http://www.w3.org/2000/svg"
 width="1283.000000pt" height="1283.000000pt" viewBox="0 0 1283.000000 1283.000000"
 preserveAspectRatio="xMidYMid meet">
<metadata>
Created by potrace 1.14, written by Peter Selinger 2001-2017
</metadata>
<g transform="translate(0.000000,1283.000000) scale(0.100000,-0.100000)"
fill="#000000" stroke="none">
<path d="M6257 12774 c-1 -1 -72 -4 -157 -8 -85 -4 -173 -9 -195 -11 -64 -5
-167 -15 -206 -21 -20 -2 -55 -7 -79 -9 -71 -7 -326 -48 -440 -70 -453 -88
-1007 -268 -1420 -462 -161 -76 -344 -167 -350 -174 -3 -4 -32 -20 -65 -38
-101 -52 -133 -71 -285 -166 -277 -173 -767 -537 -769 -571 -1 -10 175 -288
374 -594 23 -36 79 -123 125 -195 45 -71 106 -166 135 -210 28 -44 105 -163
170 -265 65 -102 148 -231 184 -287 127 -197 199 -310 336 -523 76 -118 155
-240 175 -271 l37 -56 -136 -101 c-150 -110 -252 -194 -381 -310 -106 -96
-280 -273 -280 -284 0 -4 25 -46 55 -93 54 -83 127 -197 195 -302 18 -29 35
-53 37 -53 3 0 21 19 41 42 174 199 490 480 704 626 l47 32 -126 198 c-69 108
-133 205 -141 215 -14 16 -14 19 4 37 44 43 301 193 519 303 450 227 986 388
1490 447 50 6 104 13 122 15 161 23 758 23 881 1 9 -2 49 -7 87 -11 39 -4 79
-9 90 -11 11 -2 40 -6 65 -9 192 -23 546 -107 793 -189 340 -114 671 -271 987
-468 161 -101 300 -202 485 -351 127 -102 382 -346 490 -468 369 -417 662
-883 847 -1349 27 -69 53 -134 58 -145 5 -11 18 -49 30 -85 12 -36 24 -72 27
-80 3 -8 7 -19 9 -25 1 -5 16 -55 33 -110 30 -100 98 -379 105 -432 2 -15 8
-55 14 -88 10 -55 19 -109 28 -175 2 -14 6 -50 9 -80 4 -30 8 -69 10 -86 25
-211 24 -671 -1 -899 -17 -148 -48 -364 -60 -415 -3 -14 -8 -38 -11 -55 -2
-16 -9 -48 -15 -70 -5 -22 -12 -51 -15 -65 -10 -57 -68 -264 -110 -390 -104
-313 -230 -592 -391 -870 -72 -125 -173 -280 -181 -280 -3 0 -28 35 -54 78
-137 221 -255 398 -260 391 -2 -2 -23 -35 -47 -74 -89 -143 -273 -390 -390
-520 -73 -82 -249 -259 -254 -255 -2 3 -90 140 -196 305 -106 165 -197 306
-203 313 -7 10 -28 -5 -86 -62 -403 -394 -950 -699 -1501 -836 -123 -31 -304
-66 -385 -75 -27 -3 -66 -7 -85 -10 -167 -22 -590 -23 -720 -1 -14 3 -47 7
-75 10 -27 4 -61 8 -75 11 -14 2 -41 6 -60 9 -214 31 -554 133 -790 238 -232
104 -565 304 -714 428 -11 10 -57 48 -101 85 -339 283 -636 665 -835 1070 -90
184 -98 201 -140 315 -87 234 -155 505 -185 740 -12 97 -14 119 -21 225 -10
163 -4 485 11 563 1 10 6 44 9 77 55 501 286 1097 587 1512 32 45 59 86 59 93
0 6 -19 41 -43 78 -24 37 -113 175 -197 307 -84 132 -159 246 -165 253 -10 11
-23 1 -71 -60 -33 -40 -62 -75 -65 -78 -3 -3 -42 -54 -86 -115 -146 -202 -270
-407 -375 -626 -100 -206 -170 -389 -256 -669 -22 -70 -87 -359 -97 -425 -3
-23 -7 -50 -9 -60 -2 -11 -7 -45 -11 -75 -3 -30 -8 -66 -10 -80 -2 -14 -6 -56
-9 -95 -3 -38 -9 -99 -12 -135 -11 -128 -5 -493 10 -630 3 -25 8 -70 11 -100
8 -79 50 -337 61 -372 3 -9 7 -27 9 -40 15 -81 71 -286 111 -407 105 -316 272
-660 462 -951 37 -57 176 -250 204 -285 9 -11 33 -40 53 -65 142 -174 379
-413 545 -550 30 -25 57 -47 60 -51 9 -10 191 -143 275 -201 280 -192 630
-367 970 -483 149 -51 406 -120 520 -140 36 -7 209 -36 235 -40 14 -2 50 -6
80 -10 30 -3 73 -7 95 -10 202 -22 678 -23 794 0 9 2 45 6 81 10 78 8 93 10
240 36 124 21 213 40 330 71 41 11 89 24 105 28 61 15 283 94 389 137 304 123
598 287 866 481 58 42 107 78 110 82 3 3 41 34 85 70 98 79 128 105 170 147
18 18 37 33 41 33 5 -1 72 -100 148 -220 l139 -219 41 36 c70 62 228 224 311
318 118 134 136 156 257 318 l112 147 30 -47 c17 -27 62 -97 101 -158 39 -60
120 -186 180 -280 59 -93 116 -180 125 -192 17 -22 18 -22 201 160 156 156
256 263 432 467 42 49 194 244 245 315 521 725 847 1437 1057 2307 19 80 36
157 37 170 1 18 -106 203 -132 228 -3 3 -10 14 -16 25 -6 11 -64 101 -127 200
-64 99 -178 277 -253 395 -76 118 -167 260 -203 315 -35 55 -79 123 -96 150
-18 28 -66 102 -106 165 -140 216 -534 830 -549 855 -8 14 -101 159 -206 323
-106 163 -319 495 -474 737 -156 242 -297 463 -315 490 -18 28 -171 266 -340
530 -169 264 -327 509 -350 545 -23 36 -176 274 -340 530 -164 256 -325 507
-359 559 -33 52 -99 155 -146 228 -47 73 -146 227 -220 343 -74 115 -146 228
-160 249 -14 22 -70 110 -125 195 -55 86 -135 211 -178 278 -77 122 -87 132
-143 141 -16 3 -74 14 -129 26 -55 11 -143 27 -195 36 -52 9 -107 18 -121 20
-35 6 -93 14 -158 21 -30 3 -62 7 -71 9 -10 2 -57 6 -106 10 -49 4 -97 9 -106
10 -51 10 -660 27 -671 19z"/>
<path d="M9550 11947 c0 -3 27 -47 60 -98 33 -52 98 -155 145 -229 48 -74 156
-243 240 -375 85 -132 163 -253 174 -270 10 -16 54 -84 96 -150 43 -66 92
-142 110 -170 17 -27 55 -85 83 -129 29 -43 52 -83 52 -87 0 -5 5 -9 10 -9 6
0 10 -4 10 -10 0 -5 37 -67 83 -137 173 -266 222 -343 237 -368 18 -29 288
-450 375 -585 34 -52 99 -153 145 -225 46 -71 102 -159 125 -195 153 -237 189
-294 270 -420 50 -77 131 -205 182 -283 50 -78 117 -182 149 -232 31 -49 73
-115 93 -145 20 -30 41 -63 46 -73 6 -10 41 -66 80 -125 62 -96 109 -168 210
-327 18 -27 66 -102 107 -165 41 -63 85 -132 97 -152 12 -21 24 -38 27 -38 2
0 2 17 0 38 -3 20 -8 71 -12 112 -4 41 -8 77 -9 80 -1 3 -5 34 -9 70 -12 105
-13 112 -25 175 -6 33 -13 74 -16 90 -3 17 -10 59 -15 94 -6 36 -13 67 -14 70
-2 3 -7 23 -10 44 -39 246 -250 920 -370 1182 -8 17 -35 77 -61 135 -51 114
-153 318 -214 427 -81 146 -97 173 -184 313 -121 193 -247 373 -415 590 -27
35 -187 226 -207 246 -5 6 -51 56 -102 111 -216 234 -484 485 -698 653 -22 17
-49 38 -60 47 -153 128 -544 389 -777 520 -5 2 -8 2 -8 0z"/>
<path d="M1488 10428 c-66 -78 -84 -102 -174 -223 -125 -166 -305 -438 -376
-564 -11 -20 -49 -87 -85 -150 -88 -155 -228 -443 -307 -634 -36 -87 -66 -163
-66 -168 0 -5 -9 -28 -20 -52 -76 -164 -241 -759 -294 -1062 -3 -16 -8 -41
-10 -55 -3 -14 -8 -41 -10 -60 -3 -19 -7 -44 -10 -55 -2 -11 -9 -63 -16 -115
-6 -52 -13 -105 -15 -118 -2 -13 -7 -53 -10 -90 -4 -37 -8 -83 -11 -102 -25
-220 -25 -922 0 -1130 2 -14 7 -56 11 -95 17 -174 50 -386 100 -648 26 -136
137 -558 164 -622 4 -11 27 -78 51 -150 112 -339 317 -788 501 -1098 33 -54
59 -101 59 -103 0 -8 200 -310 266 -404 61 -85 269 -357 283 -370 4 -3 49 -54
101 -115 122 -142 174 -197 349 -369 164 -161 154 -151 246 -231 38 -33 79
-68 90 -78 34 -31 247 -201 310 -248 33 -24 62 -46 65 -49 34 -35 470 -317
587 -380 16 -8 71 -38 123 -67 52 -29 98 -51 101 -50 4 1 15 -5 25 -14 34 -28
356 -176 549 -252 207 -82 399 -148 570 -197 61 -17 133 -37 160 -45 145 -42
530 -121 685 -141 25 -3 56 -7 70 -10 33 -5 179 -22 255 -29 33 -3 80 -7 105
-10 225 -23 800 -23 1015 -1 17 2 66 6 110 10 44 4 91 9 105 11 14 2 48 7 75
10 79 9 126 15 185 25 30 5 71 11 90 14 19 3 71 12 115 21 44 9 94 18 110 21
22 4 249 57 335 79 3 1 19 5 35 9 17 5 109 32 206 62 475 145 915 338 1339
587 71 42 204 123 219 134 4 3 -35 78 -51 98 -5 6 -47 71 -95 145 -150 235
-173 270 -180 270 -6 0 -77 -56 -105 -83 -20 -19 -119 -100 -148 -122 -15 -11
-53 -39 -84 -63 -295 -225 -645 -421 -1056 -592 -106 -44 -323 -117 -480 -160
-141 -39 -265 -66 -475 -105 -36 -6 -163 -24 -225 -30 -25 -3 -63 -7 -85 -10
-196 -24 -740 -24 -886 0 -13 2 -53 6 -88 9 -35 4 -73 8 -85 11 -11 2 -39 6
-61 9 -241 29 -636 128 -889 222 -161 60 -207 78 -326 132 -1092 491 -1969
1403 -2401 2497 -22 55 -44 109 -49 120 -20 42 -84 247 -125 400 -42 157 -62
245 -80 350 -3 17 -10 53 -15 80 -39 206 -64 516 -64 790 1 222 9 352 35 560
16 122 19 148 24 171 3 12 7 39 11 60 26 171 118 528 178 694 9 25 23 65 32
90 8 25 19 54 24 65 5 11 32 76 60 145 186 449 446 859 813 1283 57 65 62 44
-58 227 -44 69 -98 152 -119 185 -20 33 -120 188 -221 345 -101 157 -228 354
-282 439 -90 141 -140 219 -296 461 -181 281 -437 682 -447 700 -15 28 -21 26
-62 -22z"/>
<path d="M6347 9114 c-1 -1 -65 -4 -142 -8 -77 -3 -158 -8 -180 -11 -140 -17
-223 -28 -240 -31 -10 -2 -37 -6 -60 -9 -22 -4 -111 -22 -198 -41 -384 -85
-754 -226 -1112 -424 -77 -43 -293 -179 -299 -189 -4 -6 7 -27 63 -111 57 -86
131 -202 131 -206 0 -3 5 -10 10 -17 11 -13 18 -24 119 -182 35 -55 65 -102
67 -103 1 -2 40 21 86 50 372 243 802 413 1229 487 161 28 188 32 369 46 143
12 463 6 590 -10 19 -3 55 -7 80 -10 39 -5 85 -12 180 -29 21 -3 89 -18 194
-41 106 -24 338 -100 480 -159 289 -120 643 -334 855 -518 8 -7 35 -30 60 -51
216 -183 469 -479 637 -742 74 -117 206 -371 259 -500 87 -209 164 -465 200
-665 3 -14 7 -36 9 -50 5 -25 10 -55 22 -145 3 -27 8 -58 9 -67 7 -33 18 -244
18 -343 1 -109 -10 -356 -18 -394 -2 -13 -7 -49 -11 -80 -3 -31 -8 -65 -10
-76 -3 -11 -7 -36 -10 -55 -3 -19 -7 -42 -9 -50 -2 -8 -7 -31 -10 -50 -23
-137 -105 -407 -177 -584 -56 -138 -62 -148 -76 -134 -7 7 -12 16 -12 21 0 5
-13 27 -29 50 -42 61 -251 388 -251 393 0 3 -5 10 -11 17 -6 7 -96 145 -199
307 -104 162 -194 302 -199 310 -6 8 -85 132 -177 275 -91 143 -181 283 -199
310 -18 28 -227 354 -465 725 -238 371 -450 702 -471 735 -46 70 -47 71 -100
155 -23 36 -43 66 -44 68 -1 2 -43 -23 -93 -55 -138 -88 -775 -497 -783 -503
-5 -3 15 -42 44 -86 29 -44 158 -246 287 -447 129 -202 270 -422 314 -490 43
-67 99 -155 125 -195 60 -94 489 -763 556 -867 183 -282 275 -428 275 -435 0
-5 4 -10 8 -12 4 -1 41 -56 82 -121 41 -64 96 -150 122 -190 26 -39 81 -126
123 -192 230 -362 457 -710 464 -713 4 -1 41 34 82 79 41 45 81 89 89 98 29
31 146 187 197 261 80 119 161 256 220 374 30 60 58 104 63 100 5 -5 82 -124
173 -264 90 -140 189 -295 221 -344 l58 -89 23 39 c62 106 80 140 146 274 39
80 77 159 84 175 30 69 35 83 55 135 11 30 24 64 29 75 22 50 96 283 122 385
9 36 48 201 54 233 14 64 45 273 51 332 3 39 8 78 10 89 21 113 21 618 0 781
-3 17 -7 58 -11 92 -3 34 -7 70 -9 80 -2 10 -7 38 -11 63 -4 25 -9 52 -10 60
-1 8 -6 35 -10 60 -37 232 -155 624 -250 835 -12 28 -26 61 -30 75 -16 52
-184 370 -259 490 -114 183 -195 296 -346 480 -97 118 -310 338 -434 445 -37
33 -73 65 -80 70 -43 38 -210 165 -306 232 -291 203 -624 374 -970 495 -80 28
-226 75 -260 83 -8 2 -60 15 -115 29 -104 26 -275 60 -359 71 -27 3 -52 8 -55
9 -3 2 -44 7 -91 11 -47 4 -92 9 -102 10 -40 8 -444 24 -451 19z"/>
<path d="M4421 7714 c-140 -103 -246 -197 -396 -348 -148 -150 -281 -307 -279
-330 1 -10 157 -260 260 -416 12 -19 171 -267 353 -550 181 -283 333 -520 338
-526 4 -5 13 -18 18 -27 14 -24 344 -539 430 -672 40 -60 190 -294 335 -520
144 -225 291 -455 327 -510 104 -160 763 -1187 785 -1223 19 -30 22 -32 42
-19 11 8 116 74 231 148 116 73 251 161 302 194 51 33 144 93 208 134 63 40
115 75 115 78 0 3 -46 77 -102 164 -57 88 -114 177 -128 199 -14 22 -50 78
-80 125 -30 47 -66 103 -80 125 -25 40 -77 120 -193 301 -34 53 -127 197 -205
320 -79 123 -206 321 -282 439 -76 118 -173 269 -215 335 -42 66 -112 176
-157 245 -44 69 -101 157 -125 195 -24 39 -81 127 -126 197 -155 242 -632 983
-702 1093 -249 387 -392 609 -405 630 -79 130 -177 275 -185 275 -5 -1 -44
-26 -84 -56z"/>
</g>
</svg>
